<svg xmlns="http://www.w3.org/2000/svg" xmlns:xlink="http://www.w3.org/1999/xlink" id="Layer_1" x="0px" y="0px" viewBox="0 0 512 512" style="enable-background:new 0 0 512 512;" xml:space="preserve" width="512" height="512">
<g>
	<g>
		<g>
			<g>
				<g>
					<g>
						<path style="fill:#426175;" d="M290.534,336.048h-69.067c0,106.315-64.774,160.735-64.774,160.735h198.616        C355.308,496.782,290.534,442.363,290.534,336.048z"></path>
						<path style="fill:#CDD6DF;" d="M368.902,504.574H143.098c-5.436,0-9.842-4.406-9.842-9.842v0        c0-17.322,14.042-31.364,31.364-31.364h182.76c17.322,0,31.364,14.042,31.364,31.364v0        C378.743,500.167,374.337,504.574,368.902,504.574z"></path>
					</g>
					<g>
						<g>
							<path style="fill:#426175;" d="M492.102,397.045H19.898C8.908,397.045,0,388.136,0,377.147V27.324         C0,16.335,8.908,7.426,19.898,7.426h472.205c10.989,0,19.898,8.908,19.898,19.898v349.823         C512,388.136,503.091,397.045,492.102,397.045z"></path>
							<path style="fill:#2C4456;" d="M492.102,7.426h-55.339c10.989,0,19.898,8.908,19.898,19.898v349.823         c0,10.989-8.909,19.898-19.898,19.898h55.339c10.989,0,19.898-8.909,19.898-19.898V27.324         C512,16.335,503.091,7.426,492.102,7.426z"></path>
							<rect x="28.844" y="37.3" style="fill:#F2F2F2;" width="454.312" height="271.441"></rect>
							<rect x="28.844" y="37.3" style="fill:#46D1C0;" width="454.312" height="50.563"></rect>
							<path style="fill:#CDD6DF;" d="M0,339.646v37.501c0,10.989,8.909,19.898,19.898,19.898h472.205         c10.989,0,19.898-8.908,19.898-19.898v-37.501H0z"></path>
							<path style="fill:#ABB2BA;" d="M512,339.646h-55.339v37.501c0,10.989-8.909,19.898-19.898,19.898h55.339         c10.989,0,19.898-8.909,19.898-19.898L512,339.646L512,339.646z"></path>
						</g>
					</g>
				</g>
				<g>
					<path style="fill:#FD715C;" d="M144.865,199.334l43.152-28.221c0.656-0.492,1.641-0.656,2.461-0.656       c3.446,0,7.876,3.61,7.876,8.204c0,1.969-0.984,3.774-2.461,4.758l-34.456,22.643l34.456,22.643       c1.477,0.82,2.461,2.625,2.461,4.758c0,4.595-4.43,8.04-7.876,8.04c-0.82,0-1.805-0.164-2.461-0.656l-43.152-28.221       c-2.461-1.641-3.61-4.43-3.61-6.563C141.255,203.929,142.403,200.975,144.865,199.334z"></path>
					<path style="fill:#FD715C;" d="M289.585,131.406c0,0.984-0.164,1.805-0.656,2.625l-60.217,120.105       c-0.984,1.969-3.117,3.118-5.414,3.118c-3.774,0-6.399-3.118-6.399-6.071c0-0.82,0.164-1.641,0.492-2.461l60.381-120.598       c0.984-2.133,2.789-2.953,4.923-2.953C285.975,125.171,289.585,127.632,289.585,131.406z"></path>
					<path style="fill:#FD715C;" d="M361.453,212.625L318.3,240.846c-0.656,0.492-1.476,0.656-2.297,0.656       c-3.61,0-7.876-3.446-7.876-8.04c0-2.133,0.984-3.938,2.297-4.758l34.62-22.643l-34.62-22.643       c-1.313-0.984-2.297-2.789-2.297-4.758c0-4.595,4.266-8.204,7.876-8.204c0.82,0,1.641,0.164,2.297,0.656l43.153,28.221       c2.461,1.641,3.61,4.595,3.61,6.727C365.062,208.195,364.078,210.984,361.453,212.625z"></path>
				</g>
			</g>
		</g>
	</g>
	<g>
		<path style="fill:#F2F2F2;" d="M356.498,69.783c-3.971,0-7.202-3.231-7.202-7.201c0-3.971,3.231-7.202,7.202-7.202    s7.202,3.231,7.202,7.202C363.7,66.552,360.469,69.783,356.498,69.783z"></path>
		<path style="fill:#F2F2F2;" d="M395.961,69.783c-3.971,0-7.202-3.231-7.202-7.201c0-3.971,3.231-7.202,7.202-7.202    s7.202,3.231,7.202,7.202C403.163,66.552,399.933,69.783,395.961,69.783z"></path>
		<path style="fill:#F2F2F2;" d="M435.425,69.783c-3.971,0-7.202-3.231-7.202-7.201c0-3.971,3.231-7.202,7.202-7.202    c3.971,0,7.201,3.231,7.201,7.202C442.626,66.552,439.396,69.783,435.425,69.783z"></path>
	</g>
</g>















</svg>