<svg xmlns="http://www.w3.org/2000/svg" xmlns:xlink="http://www.w3.org/1999/xlink" id="Layer_1" x="0px" y="0px" viewBox="0 0 512 512" style="enable-background:new 0 0 512 512;" xml:space="preserve" width="512" height="512">
<g>
	<g>
		<g>
			<g>
				<g>
					<g>
						<g>
							<path style="fill:#426175;" d="M290.534,336.048h-69.067c0,106.315-64.774,160.735-64.774,160.735h198.616         C355.308,496.782,290.534,442.363,290.534,336.048z"></path>
							<path style="fill:#2C4456;" d="M290.534,336.048h-55.179c0,106.315,64.774,160.735,64.774,160.735h55.179         C355.308,496.782,290.534,442.363,290.534,336.048z"></path>
							<path style="fill:#CDD6DF;" d="M368.902,504.574H143.098c-5.436,0-9.842-4.406-9.842-9.842v0         c0-17.322,14.042-31.364,31.364-31.364h182.76c17.322,0,31.364,14.042,31.364,31.364v0         C378.743,500.167,374.337,504.574,368.902,504.574z"></path>
						</g>
						<g>
							<g>
								<path style="fill:#426175;" d="M492.102,397.045H19.898C8.908,397.045,0,388.136,0,377.147V27.324          C0,16.335,8.908,7.426,19.898,7.426h472.205c10.989,0,19.898,8.908,19.898,19.898v349.823          C512,388.136,503.091,397.045,492.102,397.045z"></path>
								<path style="fill:#2C4456;" d="M492.102,7.426h-55.339c10.989,0,19.898,8.908,19.898,19.898v349.823          c0,10.989-8.908,19.898-19.898,19.898h55.339c10.989,0,19.898-8.908,19.898-19.898V27.324          C512,16.335,503.091,7.426,492.102,7.426z"></path>
								<rect x="28.844" y="37.3" style="fill:#88DBFD;" width="454.312" height="271.441"></rect>
								<path style="fill:#CDD6DF;" d="M0,339.646v37.501c0,10.989,8.909,19.898,19.898,19.898h472.205          c10.989,0,19.898-8.908,19.898-19.898v-37.501H0z"></path>
								<path style="fill:#ABB2BA;" d="M512,339.646h-55.339v37.501c0,10.989-8.908,19.898-19.898,19.898h55.339          c10.989,0,19.898-8.908,19.898-19.898L512,339.646L512,339.646z"></path>
							</g>
						</g>
					</g>
				</g>
			</g>
		</g>
	</g>
	<g>
		<path style="fill:#CDD6DF;" d="M256,37.3v271.441l176.484-27.979c6.886-1.092,11.956-7.028,11.956-14V24.026    c0-8.714-7.788-15.365-16.395-14L256,37.3z"></path>
		<g>
			<path style="fill:#CDD6DF;" d="M431.998,9.972c-1.104-0.135-2.24-0.141-3.397-0.004L431.998,9.972z"></path>
		</g>
		<path style="fill:#F2F2F2;" d="M256,37.3v271.441L79.516,280.763c-6.886-1.092-11.956-7.028-11.956-14V24.026    c0-8.714,7.788-15.365,16.395-14L256,37.3z"></path>
	</g>
	<g>
		<g>
			<path style="fill:#33BCA5;" d="M287.926,120.867c-3.734,0-7.019-2.713-7.622-6.517c-0.668-4.215,2.206-8.173,6.421-8.841     l124.57-19.749c4.229-0.671,8.174,2.208,8.841,6.421c0.668,4.215-2.206,8.173-6.421,8.841l-124.57,19.749     C288.734,120.836,288.327,120.867,287.926,120.867z"></path>
		</g>
		<g>
			<path style="fill:#33BCA5;" d="M224.075,120.867c-0.402,0-0.809-0.031-1.219-0.097L98.285,101.021     c-4.215-0.668-7.09-4.626-6.422-8.841c0.669-4.214,4.629-7.096,8.841-6.421l124.571,19.749c4.215,0.668,7.09,4.626,6.422,8.841     C231.094,118.154,227.809,120.867,224.075,120.867z"></path>
		</g>
	</g>
	<g>
		<g>
			<path style="fill:#33BCA5;" d="M287.926,178.52c-3.734,0-7.019-2.713-7.622-6.517c-0.668-4.215,2.206-8.173,6.421-8.841     l124.57-19.749c4.229-0.672,8.174,2.207,8.841,6.421c0.668,4.215-2.206,8.173-6.421,8.841l-124.57,19.749     C288.734,178.489,288.327,178.52,287.926,178.52z"></path>
		</g>
		<g>
			<path style="fill:#33BCA5;" d="M224.075,178.52c-0.402,0-0.809-0.031-1.219-0.097L98.285,158.674     c-4.215-0.668-7.09-4.626-6.422-8.841c0.669-4.214,4.629-7.096,8.841-6.421l124.571,19.749c4.215,0.668,7.09,4.626,6.422,8.841     C231.094,175.807,227.809,178.52,224.075,178.52z"></path>
		</g>
	</g>
	<g>
		<g>
			<path style="fill:#33BCA5;" d="M287.926,236.174c-3.734,0-7.019-2.712-7.622-6.517c-0.668-4.215,2.206-8.173,6.421-8.841     l62.286-9.875c4.227-0.674,8.174,2.207,8.841,6.421c0.668,4.215-2.206,8.173-6.421,8.841l-62.286,9.875     C288.734,236.143,288.327,236.174,287.926,236.174z"></path>
		</g>
		<g>
			<path style="fill:#33BCA5;" d="M224.075,236.174c-0.402,0-0.809-0.031-1.219-0.097L98.285,216.328     c-4.215-0.668-7.09-4.626-6.422-8.841c0.669-4.214,4.629-7.096,8.841-6.421l124.571,19.75c4.215,0.668,7.09,4.626,6.422,8.841     C231.094,233.461,227.809,236.174,224.075,236.174z"></path>
		</g>
	</g>
</g>















</svg>